# xmcd
#
# Track frame offsets:
# 150
# 13270
# 26200
# 39545
# 50960
# 61710
# 75962
# 93612
# 102117
# 114232
# 127260
# 139722
#
# Disc length: 2014 seconds
#
#
# Revision: 0
# Processed by: cddbd v1.5.2PL0 Copyright (c) Steve Scherf et al.
# Submitted via: FreeRIP 2.945 
#
DISCID=a007dc0c
DTITLE=Varios - Cinquentenário da música Sertaneja
DYEAR=1900
DGENRE=Country
TTITLE0=Menino da porteira
TTITLE1=Burro picaco
TTITLE2=Bom Jesus de Pirapora
TTITLE3=Tristeza do Jeca
TTITLE4=Fazendeiro Arruinado
TTITLE5=Chalana
TTITLE6=Dancando  Quadrilha
TTITLE7=Beijinho Doce
TTITLE8=Rio de Lagrimas
TTITLE9=Chico Mineiro
TTITLE10=Moreninha Linda
TTITLE11=Menino da Bandeira
EXTD=
EXTT0=
EXTT1=
EXTT2=
EXTT3=
EXTT4=
EXTT5=
EXTT6=
EXTT7=
EXTT8=
EXTT9=
EXTT10=
EXTT11=
PLAYORDER=
